<svg xmlns="http://www.w3.org/2000/svg" id="ICONS-64x" viewBox="0 0 64 64"><defs><style>.cls-1{fill:#fff}.cls-2{fill:#55d2f6}.cls-3{fill:none;stroke:#556a8a;stroke-miterlimit:10;stroke-width:2px}.cls-4{fill:#e5e5e5}</style></defs><title>i_article</title><polygon points="55.5 20.21 55.5 63.5 8.5 63.5 8.5 .5 34.8 .5 55.5 20.21" class="cls-1"/><polygon points="55.5 20.5 34.5 20.5 34.5 .5 55.5 20.5" class="cls-2"/><path d="M34.88,1H10A1,1,0,0,0,9,2V62a1,1,0,0,0,1,1H54a1,1,0,0,0,1-1V20.37Z" class="cls-3"/><rect width="16" height="60" x="10" y="2" class="cls-4"/><polyline points="34 1 34 21 55 21" class="cls-3"/><line x1="16" x2="29" y1="21" y2="21" class="cls-3"/><line x1="16" x2="48" y1="30" y2="30" class="cls-3"/><line x1="16" x2="48" y1="39" y2="39" class="cls-3"/><line x1="16" x2="48" y1="48" y2="48" class="cls-3"/></svg>